<mxfile host="app.diagrams.net" modified="2021-07-25T16:27:23.879Z" agent="5.0 (Windows NT 10.0; Win64; x64) AppleWebKit/537.36 (KHTML, like Gecko) Chrome/91.0.4472.164 Safari/537.36" etag="lltH72RvQ5QDSHxDbymy" version="14.9.0" type="github">
  <diagram id="eSUmBb4F5aVwt4nN1fiy" name="Page-1">
    <mxGraphModel dx="1036" dy="438" grid="1" gridSize="10" guides="1" tooltips="1" connect="1" arrows="1" fold="1" page="1" pageScale="1" pageWidth="850" pageHeight="1100" math="0" shadow="0">
      <root>
        <mxCell id="0" />
        <mxCell id="1" parent="0" />
        <mxCell id="6lCwg41snE5ANfyoo5fW-1" value="dispatch" style="html=1;verticalAlign=bottom;startArrow=circle;startFill=1;endArrow=open;startSize=6;endSize=8;entryX=-0.005;entryY=-0.024;entryDx=0;entryDy=0;entryPerimeter=0;" edge="1" parent="1" target="6lCwg41snE5ANfyoo5fW-7">
          <mxGeometry width="80" relative="1" as="geometry">
            <mxPoint x="40" y="400" as="sourcePoint" />
            <mxPoint x="130" y="401.125" as="targetPoint" />
            <Array as="points">
              <mxPoint x="50" y="395" />
            </Array>
          </mxGeometry>
        </mxCell>
        <mxCell id="6lCwg41snE5ANfyoo5fW-6" value="Waiting" style="swimlane;fontStyle=0;childLayout=stackLayout;horizontal=1;startSize=26;horizontalStack=0;resizeParent=1;resizeParentMax=0;resizeLast=0;collapsible=1;marginBottom=0;" vertex="1" parent="1">
          <mxGeometry x="120" y="370" width="140" height="52" as="geometry" />
        </mxCell>
        <mxCell id="6lCwg41snE5ANfyoo5fW-7" value="do : display welcome" style="text;strokeColor=none;fillColor=none;align=left;verticalAlign=top;spacingLeft=4;spacingRight=4;overflow=hidden;rotatable=0;points=[[0,0.5],[1,0.5]];portConstraint=eastwest;" vertex="1" parent="6lCwg41snE5ANfyoo5fW-6">
          <mxGeometry y="26" width="140" height="26" as="geometry" />
        </mxCell>
        <mxCell id="6lCwg41snE5ANfyoo5fW-10" value="Resetting" style="swimlane;fontStyle=0;childLayout=stackLayout;horizontal=1;startSize=26;horizontalStack=0;resizeParent=1;resizeParentMax=0;resizeLast=0;collapsible=1;marginBottom=0;" vertex="1" parent="1">
          <mxGeometry x="320" y="450" width="140" height="52" as="geometry" />
        </mxCell>
        <mxCell id="6lCwg41snE5ANfyoo5fW-11" value="do: Display error" style="text;strokeColor=none;fillColor=none;align=left;verticalAlign=top;spacingLeft=4;spacingRight=4;overflow=hidden;rotatable=0;points=[[0,0.5],[1,0.5]];portConstraint=eastwest;" vertex="1" parent="6lCwg41snE5ANfyoo5fW-10">
          <mxGeometry y="26" width="140" height="26" as="geometry" />
        </mxCell>
        <mxCell id="6lCwg41snE5ANfyoo5fW-12" value="Reading" style="swimlane;fontStyle=0;childLayout=stackLayout;horizontal=1;startSize=26;horizontalStack=0;resizeParent=1;resizeParentMax=0;resizeLast=0;collapsible=1;marginBottom=0;" vertex="1" parent="1">
          <mxGeometry x="320" y="260" width="140" height="52" as="geometry" />
        </mxCell>
        <mxCell id="6lCwg41snE5ANfyoo5fW-13" value="do: Read card details" style="text;strokeColor=none;fillColor=none;align=left;verticalAlign=top;spacingLeft=4;spacingRight=4;overflow=hidden;rotatable=0;points=[[0,0.5],[1,0.5]];portConstraint=eastwest;" vertex="1" parent="6lCwg41snE5ANfyoo5fW-12">
          <mxGeometry y="26" width="140" height="26" as="geometry" />
        </mxCell>
        <mxCell id="6lCwg41snE5ANfyoo5fW-14" value="Initialize" style="swimlane;fontStyle=0;childLayout=stackLayout;horizontal=1;startSize=26;horizontalStack=0;resizeParent=1;resizeParentMax=0;resizeLast=0;collapsible=1;marginBottom=0;" vertex="1" parent="1">
          <mxGeometry x="550" y="260" width="140" height="52" as="geometry" />
        </mxCell>
        <mxCell id="6lCwg41snE5ANfyoo5fW-15" value="do: Display OK" style="text;strokeColor=none;fillColor=none;align=left;verticalAlign=top;spacingLeft=4;spacingRight=4;overflow=hidden;rotatable=0;points=[[0,0.5],[1,0.5]];portConstraint=eastwest;" vertex="1" parent="6lCwg41snE5ANfyoo5fW-14">
          <mxGeometry y="26" width="140" height="26" as="geometry" />
        </mxCell>
        <mxCell id="6lCwg41snE5ANfyoo5fW-16" value="Ready" style="swimlane;fontStyle=0;childLayout=stackLayout;horizontal=1;startSize=26;horizontalStack=0;resizeParent=1;resizeParentMax=0;resizeLast=0;collapsible=1;marginBottom=0;" vertex="1" parent="1">
          <mxGeometry x="550" y="360" width="140" height="52" as="geometry" />
        </mxCell>
        <mxCell id="6lCwg41snE5ANfyoo5fW-18" value="Delivering" style="swimlane;fontStyle=0;childLayout=stackLayout;horizontal=1;startSize=26;horizontalStack=0;resizeParent=1;resizeParentMax=0;resizeLast=0;collapsible=1;marginBottom=0;" vertex="1" parent="1">
          <mxGeometry x="550" y="470" width="140" height="80" as="geometry" />
        </mxCell>
        <mxCell id="6lCwg41snE5ANfyoo5fW-19" value="do: Delivering fuel&#xa;       Updating display" style="text;strokeColor=none;fillColor=none;align=left;verticalAlign=top;spacingLeft=4;spacingRight=4;overflow=hidden;rotatable=0;points=[[0,0.5],[1,0.5]];portConstraint=eastwest;" vertex="1" parent="6lCwg41snE5ANfyoo5fW-18">
          <mxGeometry y="26" width="140" height="54" as="geometry" />
        </mxCell>
        <mxCell id="6lCwg41snE5ANfyoo5fW-20" value="Stopped" style="swimlane;fontStyle=0;childLayout=stackLayout;horizontal=1;startSize=26;horizontalStack=0;resizeParent=1;resizeParentMax=0;resizeLast=0;collapsible=1;marginBottom=0;" vertex="1" parent="1">
          <mxGeometry x="330" y="560" width="140" height="52" as="geometry" />
        </mxCell>
        <mxCell id="6lCwg41snE5ANfyoo5fW-22" value="Paying" style="swimlane;fontStyle=0;childLayout=stackLayout;horizontal=1;startSize=26;horizontalStack=0;resizeParent=1;resizeParentMax=0;resizeLast=0;collapsible=1;marginBottom=0;" vertex="1" parent="1">
          <mxGeometry x="100" y="560" width="140" height="52" as="geometry" />
        </mxCell>
        <mxCell id="6lCwg41snE5ANfyoo5fW-23" value="Insert Card" style="html=1;verticalAlign=bottom;endArrow=block;exitX=0.5;exitY=0;exitDx=0;exitDy=0;entryX=-0.007;entryY=0.069;entryDx=0;entryDy=0;entryPerimeter=0;" edge="1" parent="1" source="6lCwg41snE5ANfyoo5fW-6" target="6lCwg41snE5ANfyoo5fW-13">
          <mxGeometry width="80" relative="1" as="geometry">
            <mxPoint x="330" y="360" as="sourcePoint" />
            <mxPoint x="410" y="360" as="targetPoint" />
            <Array as="points">
              <mxPoint x="190" y="288" />
            </Array>
          </mxGeometry>
        </mxCell>
        <mxCell id="6lCwg41snE5ANfyoo5fW-25" value="Valid" style="html=1;verticalAlign=bottom;endArrow=block;exitX=1;exitY=0.5;exitDx=0;exitDy=0;entryX=0;entryY=0.5;entryDx=0;entryDy=0;" edge="1" parent="1" source="6lCwg41snE5ANfyoo5fW-12" target="6lCwg41snE5ANfyoo5fW-14">
          <mxGeometry width="80" relative="1" as="geometry">
            <mxPoint x="330" y="360" as="sourcePoint" />
            <mxPoint x="410" y="360" as="targetPoint" />
          </mxGeometry>
        </mxCell>
        <mxCell id="6lCwg41snE5ANfyoo5fW-27" value="Invalid" style="html=1;verticalAlign=bottom;endArrow=block;exitX=0.482;exitY=1.045;exitDx=0;exitDy=0;exitPerimeter=0;entryX=0.5;entryY=0;entryDx=0;entryDy=0;" edge="1" parent="1" source="6lCwg41snE5ANfyoo5fW-13" target="6lCwg41snE5ANfyoo5fW-10">
          <mxGeometry width="80" relative="1" as="geometry">
            <mxPoint x="330" y="410" as="sourcePoint" />
            <mxPoint x="410" y="410" as="targetPoint" />
          </mxGeometry>
        </mxCell>
        <mxCell id="6lCwg41snE5ANfyoo5fW-28" value="Timeout" style="html=1;verticalAlign=bottom;endArrow=block;exitX=0;exitY=0.5;exitDx=0;exitDy=0;entryX=0.503;entryY=1.143;entryDx=0;entryDy=0;entryPerimeter=0;" edge="1" parent="1" source="6lCwg41snE5ANfyoo5fW-10" target="6lCwg41snE5ANfyoo5fW-7">
          <mxGeometry x="0.1264" y="-8" width="80" relative="1" as="geometry">
            <mxPoint x="330" y="410" as="sourcePoint" />
            <mxPoint x="410" y="410" as="targetPoint" />
            <Array as="points">
              <mxPoint x="190" y="476" />
            </Array>
            <mxPoint as="offset" />
          </mxGeometry>
        </mxCell>
        <mxCell id="6lCwg41snE5ANfyoo5fW-32" value="Hose out of hostler" style="html=1;verticalAlign=bottom;endArrow=block;exitX=0.459;exitY=1.003;exitDx=0;exitDy=0;exitPerimeter=0;entryX=0.463;entryY=-0.009;entryDx=0;entryDy=0;entryPerimeter=0;" edge="1" parent="1" source="6lCwg41snE5ANfyoo5fW-15" target="6lCwg41snE5ANfyoo5fW-16">
          <mxGeometry width="80" relative="1" as="geometry">
            <mxPoint x="330" y="410" as="sourcePoint" />
            <mxPoint x="410" y="410" as="targetPoint" />
          </mxGeometry>
        </mxCell>
        <mxCell id="6lCwg41snE5ANfyoo5fW-33" value="Nozzel trigger on" style="html=1;verticalAlign=bottom;endArrow=block;exitX=0.5;exitY=1;exitDx=0;exitDy=0;entryX=0.5;entryY=0;entryDx=0;entryDy=0;" edge="1" parent="1" source="6lCwg41snE5ANfyoo5fW-16" target="6lCwg41snE5ANfyoo5fW-18">
          <mxGeometry width="80" relative="1" as="geometry">
            <mxPoint x="330" y="410" as="sourcePoint" />
            <mxPoint x="410" y="410" as="targetPoint" />
          </mxGeometry>
        </mxCell>
        <mxCell id="6lCwg41snE5ANfyoo5fW-34" value="Nozzel trigger off" style="html=1;verticalAlign=bottom;endArrow=block;exitX=0.518;exitY=1.059;exitDx=0;exitDy=0;exitPerimeter=0;entryX=1;entryY=0.5;entryDx=0;entryDy=0;" edge="1" parent="1" source="6lCwg41snE5ANfyoo5fW-19" target="6lCwg41snE5ANfyoo5fW-20">
          <mxGeometry width="80" relative="1" as="geometry">
            <mxPoint x="330" y="410" as="sourcePoint" />
            <mxPoint x="410" y="410" as="targetPoint" />
            <Array as="points">
              <mxPoint x="623" y="586" />
            </Array>
          </mxGeometry>
        </mxCell>
        <mxCell id="6lCwg41snE5ANfyoo5fW-35" value="Nozzel trigger on" style="html=1;verticalAlign=bottom;endArrow=block;exitX=0.469;exitY=-0.015;exitDx=0;exitDy=0;exitPerimeter=0;entryX=-0.006;entryY=0.129;entryDx=0;entryDy=0;entryPerimeter=0;" edge="1" parent="1" source="6lCwg41snE5ANfyoo5fW-20" target="6lCwg41snE5ANfyoo5fW-19">
          <mxGeometry width="80" relative="1" as="geometry">
            <mxPoint x="330" y="410" as="sourcePoint" />
            <mxPoint x="410" y="410" as="targetPoint" />
          </mxGeometry>
        </mxCell>
        <mxCell id="6lCwg41snE5ANfyoo5fW-36" value="Hose in hostler" style="html=1;verticalAlign=bottom;endArrow=block;entryX=1;entryY=0.5;entryDx=0;entryDy=0;exitX=0;exitY=0.5;exitDx=0;exitDy=0;" edge="1" parent="1" source="6lCwg41snE5ANfyoo5fW-20" target="6lCwg41snE5ANfyoo5fW-22">
          <mxGeometry width="80" relative="1" as="geometry">
            <mxPoint x="330" y="591.1034314385776" as="sourcePoint" />
            <mxPoint x="260" y="591" as="targetPoint" />
          </mxGeometry>
        </mxCell>
        <mxCell id="6lCwg41snE5ANfyoo5fW-37" value="do: debt from card" style="text;html=1;align=center;verticalAlign=middle;resizable=0;points=[];autosize=1;strokeColor=none;" vertex="1" parent="1">
          <mxGeometry x="110" y="590" width="110" height="20" as="geometry" />
        </mxCell>
        <mxCell id="6lCwg41snE5ANfyoo5fW-38" value="Payment done" style="html=1;verticalAlign=bottom;endArrow=block;exitX=0.5;exitY=0;exitDx=0;exitDy=0;entryX=0.358;entryY=1.058;entryDx=0;entryDy=0;entryPerimeter=0;" edge="1" parent="1" source="6lCwg41snE5ANfyoo5fW-22" target="6lCwg41snE5ANfyoo5fW-7">
          <mxGeometry width="80" relative="1" as="geometry">
            <mxPoint x="330" y="420" as="sourcePoint" />
            <mxPoint x="410" y="420" as="targetPoint" />
          </mxGeometry>
        </mxCell>
      </root>
    </mxGraphModel>
  </diagram>
</mxfile>
